<svg width="348" height="124" viewBox="0 0 348 124" fill="none" xmlns="http://www.w3.org/2000/svg">
<path d="M14.7408 45.883H20.5188V40.105H26.2968V34.434H43.6308V40.105H49.4088V45.883H55.0798V80.444H49.4088V86.222H43.6308V92H20.5188V86.222H14.7408V92H3.39877V17.1H14.7408V45.883ZM14.7408 74.666H20.5188V80.444H37.8528V74.666H43.6308V51.661H37.8528V45.883H26.2968V51.554H20.5188V57.332H14.7408V74.666ZM83.8745 63.217V68.995H78.0965V74.773H72.3185V80.444H83.8745V74.666H89.6525V63.217H83.8745ZM66.6475 86.222H60.8695V68.995H66.6475V63.217H72.3185V57.439H83.8745V51.661H89.6525V45.883H72.4255V51.661H60.8695V40.105H66.6475V34.434H95.4305V40.105H101.208V80.444H106.986V92H95.4305V86.222H83.8745V92H66.6475V86.222ZM112.802 17.1H124.358V80.444H130.136V92H118.58V86.222H112.802V17.1ZM158.9 63.217V68.995H153.122V74.773H147.344V80.444H158.9V74.666H164.678V63.217H158.9ZM141.673 86.222H135.895V68.995H141.673V63.217H147.344V57.439H158.9V51.661H164.678V45.883H147.451V51.661H135.895V40.105H141.673V34.434H170.456V40.105H176.234V80.444H182.012V92H170.456V86.222H158.9V92H141.673V86.222ZM199.383 51.661V92H187.827V34.434H199.383V40.105H205.161V34.434H222.388V40.105H228.166V45.883H233.944V92H222.388V51.661H216.61V45.883H205.161V51.661H199.383ZM251.316 51.661V74.666H256.987V80.444H274.321V74.666H280.099V68.995H291.548V80.444H285.877V86.222H280.099V92H251.209V86.222H245.538V74.666H239.76V51.661H245.538V40.105H251.209V34.434H280.099V40.105H285.877V45.883H291.548V57.439H280.099V51.661H274.321V45.883H256.987V51.661H251.316ZM303.113 80.444H297.335V45.883H303.113V40.105H308.784V34.434H331.896V40.105H337.674V45.883H343.452V68.995H308.891V74.666H314.562V80.444H326.118V74.666H343.452V80.444H337.674V86.222H331.896V92H308.784V86.222H303.113V80.444ZM331.896 57.439V51.554H326.118V45.776H314.562V51.554H308.891V57.439H331.896Z" fill="#FE8A73"/>
<path d="M15.7408 39.883H21.5188V34.105H27.2968V28.434H44.6308V34.105H50.4088V39.883H56.0798V74.444H50.4088V80.222H44.6308V86H21.5188V80.222H15.7408V86H4.39877V11.1H15.7408V39.883ZM15.7408 68.666H21.5188V74.444H38.8528V68.666H44.6308V45.661H38.8528V39.883H27.2968V45.554H21.5188V51.332H15.7408V68.666ZM84.8745 57.217V62.995H79.0965V68.773H73.3185V74.444H84.8745V68.666H90.6525V57.217H84.8745ZM67.6475 80.222H61.8695V62.995H67.6475V57.217H73.3185V51.439H84.8745V45.661H90.6525V39.883H73.4255V45.661H61.8695V34.105H67.6475V28.434H96.4305V34.105H102.208V74.444H107.986V86H96.4305V80.222H84.8745V86H67.6475V80.222ZM113.802 11.1H125.358V74.444H131.136V86H119.58V80.222H113.802V11.1ZM159.9 57.217V62.995H154.122V68.773H148.344V74.444H159.9V68.666H165.678V57.217H159.9ZM142.673 80.222H136.895V62.995H142.673V57.217H148.344V51.439H159.9V45.661H165.678V39.883H148.451V45.661H136.895V34.105H142.673V28.434H171.456V34.105H177.234V74.444H183.012V86H171.456V80.222H159.9V86H142.673V80.222ZM200.383 45.661V86H188.827V28.434H200.383V34.105H206.161V28.434H223.388V34.105H229.166V39.883H234.944V86H223.388V45.661H217.61V39.883H206.161V45.661H200.383ZM252.316 45.661V68.666H257.987V74.444H275.321V68.666H281.099V62.995H292.548V74.444H286.877V80.222H281.099V86H252.209V80.222H246.538V68.666H240.76V45.661H246.538V34.105H252.209V28.434H281.099V34.105H286.877V39.883H292.548V51.439H281.099V45.661H275.321V39.883H257.987V45.661H252.316ZM304.113 74.444H298.335V39.883H304.113V34.105H309.784V28.434H332.896V34.105H338.674V39.883H344.452V62.995H309.891V68.666H315.562V74.444H327.118V68.666H344.452V74.444H338.674V80.222H332.896V86H309.784V80.222H304.113V74.444ZM332.896 51.439V45.554H327.118V39.776H315.562V45.554H309.891V51.439H332.896Z" fill="#FFF4D8"/>
</svg>
